<svg version="1.2" xmlns="http://www.w3.org/2000/svg" viewBox="0 0 1000 238" width="1000" height="238">
	<title>layered-waves-haikei (3)-svg</title>
	<style>
		.s0 { fill: #ffb703 } 
		.s1 { fill: #fe9e00 } 
		.s2 { fill: #fb8500 } 
	</style>
	<path id="Layer" class="s0" d="m0 1l13.8 10.2c13.9 10.1 41.5 30.5 69.4 47.3 27.8 16.8 55.8 30.2 83.6 33 27.9 2.8 55.5-4.8 83.2-16.5 27.7-11.7 55.3-27.3 83.2-34 27.8-6.7 55.8-4.3 83.6 3.2 27.9 7.5 55.5 20.1 83.2 29.8 27.7 9.7 55.3 16.3 83.2 4.3 27.8-12 55.8-42.6 83.6-47.1 27.9-4.5 55.5 17.1 83.2 31.5 27.7 14.3 55.3 21.3 83.2 18.5 27.8-2.9 55.8-15.5 83.6-29.9 27.9-14.3 55.5-30.3 69.4-38.3l13.8-8v234h-13.8c-13.9 0-41.5 0-69.4 0-27.8 0-55.8 0-83.6 0-27.9 0-55.5 0-83.2 0-27.7 0-55.3 0-83.2 0-27.8 0-55.8 0-83.6 0-27.9 0-55.5 0-83.2 0-27.7 0-55.3 0-83.2 0-27.8 0-55.8 0-83.6 0-27.9 0-55.5 0-83.2 0-27.7 0-55.3 0-83.2 0-27.8 0-55.8 0-83.6 0-27.9 0-55.5 0-69.4 0h-13.8z"/>
	<path id="Layer" class="s1" d="m0 132l13.8-6c13.9-6 41.5-18 69.4-23.5 27.8-5.5 55.8-4.5 83.6 1.2 27.9 5.6 55.5 16 83.2 15.6 27.7-0.3 55.3-11.3 83.2-18.6 27.8-7.4 55.8-11 83.6-12.9 27.9-1.8 55.5-1.8 83.2-0.8 27.7 1 55.3 3 83.2-0.3 27.8-3.4 55.8-12 83.6-11.9 27.9 0.2 55.5 9.2 83.2 21.9 27.7 12.6 55.3 29 83.2 29.6 27.8 0.7 55.8-14.3 83.6-28.8 27.9-14.5 55.5-28.5 69.4-35.5l13.8-7v184h-13.8c-13.9 0-41.5 0-69.4 0-27.8 0-55.8 0-83.6 0-27.9 0-55.5 0-83.2 0-27.7 0-55.3 0-83.2 0-27.8 0-55.8 0-83.6 0-27.9 0-55.5 0-83.2 0-27.7 0-55.3 0-83.2 0-27.8 0-55.8 0-83.6 0-27.9 0-55.5 0-83.2 0-27.7 0-55.3 0-83.2 0-27.8 0-55.8 0-83.6 0-27.9 0-55.5 0-69.4 0h-13.8z"/>
	<path id="Layer" class="s2" d="m0 165l13.8 0.8c13.9 0.9 41.5 2.5 69.4-1.3 27.8-3.8 55.8-13.2 83.6-11 27.9 2.2 55.5 15.8 83.2 21.3 27.7 5.5 55.3 2.9 83.2 2.9 27.8 0 55.8 2.6 83.6-6.5 27.9-9.2 55.5-30.2 83.2-40.5 27.7-10.4 55.3-10 83.2-8.4 27.8 1.7 55.8 4.7 83.6 16.2 27.9 11.5 55.5 31.5 83.2 35.7 27.7 4.1 55.3-7.5 83.2-6.9 27.8 0.7 55.8 13.7 83.6 13.4 27.9-0.4 55.5-14 69.4-20.9l13.8-6.8v86h-13.8c-13.9 0-41.5 0-69.4 0-27.8 0-55.8 0-83.6 0-27.9 0-55.5 0-83.2 0-27.7 0-55.3 0-83.2 0-27.8 0-55.8 0-83.6 0-27.9 0-55.5 0-83.2 0-27.7 0-55.3 0-83.2 0-27.8 0-55.8 0-83.6 0-27.9 0-55.5 0-83.2 0-27.7 0-55.3 0-83.2 0-27.8 0-55.8 0-83.6 0-27.9 0-55.5 0-69.4 0h-13.8z"/>
</svg>