<svg id="visual" viewBox="0 0 1000 500" width="1000" height="500" xmlns="http://www.w3.org/2000/svg" xmlns:xlink="http://www.w3.org/1999/xlink" version="1.1"><path d="M0 352L23.8 354.7C47.7 357.3 95.3 362.7 143 363.8C190.7 365 238.3 362 286 357.5C333.7 353 381.3 347 428.8 349.8C476.3 352.7 523.7 364.3 571.2 358.5C618.7 352.7 666.3 329.3 714 330.3C761.7 331.3 809.3 356.7 857 368C904.7 379.3 952.3 376.7 976.2 375.3L1000 374L1000 501L976.2 501C952.3 501 904.7 501 857 501C809.3 501 761.7 501 714 501C666.3 501 618.7 501 571.2 501C523.7 501 476.3 501 428.8 501C381.3 501 333.7 501 286 501C238.3 501 190.7 501 143 501C95.3 501 47.7 501 23.8 501L0 501Z" fill="#ffb703"></path><path d="M0 427L23.8 417.5C47.7 408 95.3 389 143 376.8C190.7 364.7 238.3 359.3 286 362.2C333.7 365 381.3 376 428.8 378.5C476.3 381 523.7 375 571.2 374.8C618.7 374.7 666.3 380.3 714 378.5C761.7 376.7 809.3 367.3 857 364.7C904.7 362 952.3 366 976.2 368L1000 370L1000 501L976.2 501C952.3 501 904.7 501 857 501C809.3 501 761.7 501 714 501C666.3 501 618.7 501 571.2 501C523.7 501 476.3 501 428.8 501C381.3 501 333.7 501 286 501C238.3 501 190.7 501 143 501C95.3 501 47.7 501 23.8 501L0 501Z" fill="#fe9e00"></path><path d="M0 426L23.8 426.3C47.7 426.7 95.3 427.3 143 426.2C190.7 425 238.3 422 286 428.5C333.7 435 381.3 451 428.8 457.5C476.3 464 523.7 461 571.2 459.5C618.7 458 666.3 458 714 458.7C761.7 459.3 809.3 460.7 857 457.2C904.7 453.7 952.3 445.3 976.2 441.2L1000 437L1000 501L976.2 501C952.3 501 904.7 501 857 501C809.3 501 761.7 501 714 501C666.3 501 618.7 501 571.2 501C523.7 501 476.3 501 428.8 501C381.3 501 333.7 501 286 501C238.3 501 190.7 501 143 501C95.3 501 47.7 501 23.8 501L0 501Z" fill="#fb8500"></path></svg>